# xmcd CD database file
#
# Track frame offsets:
#	183
#	10818
#	23253
#	38700
#	49193
#	57588
#	63910
#	71770
#	87280
#	109935
#	119245
#	128410
#	135183
#	150518
#	166045
#	180220
#	195780
#	207580
#	223368
#	238588
#	256843
#	272255
#	288600
#
# Disc length: 3933 seconds
#
# Revision: 10
# Processed by: cddbd v1.5.2PL0 Copyright (c) Steve Scherf et al.
# Submitted via: CDex 1.70beta2
#
DISCID=390f5b17
DTITLE=The Swingle Singers - Jazz Sebastian Bach
DYEAR=1968
DGENRE=Jazz
TTITLE0=Fugue in D Minor from 'The Art of the Fugue', BWV 1080
TTITLE1=Choral No.1: 'Wake, Arise, The Voices Call Us', BWV 645
TTITLE2=Aria from Orchestral Suite No.3 in D Major, BWV 1068
TTITLE3=Prelude No.11 in F Major from The Well-Tempered Clavier, Book 2, BWV 880
TTITLE4=Boureè from English Suite No.2 in A Minor, BWV 807
TTITLE5=Fugue No.2 in C Minor from The Well-Tempered Clavier, Book 2, BWV 871
TTITLE6=Fugue No.5 in D Major from The Well-Tempered Clavier, Book 1, BWV 850
TTITLE7=Prelude No.9 from The Well-Tempered Clavier, Book 2, BWV 878
TTITLE8=Sinfonia from Partita No.2 in C Minor, BWV 826
TTITLE9=Prelude No.1 in C Major from The Well-Tempered Clavier, Book 2, BWV 870
TTITLE10=Canon
TTITLE11=Two-Part Invention No.1 in C Major: BWV 772
TTITLE12=Fugue No.5 in D Major from The Well-Tempered Clavier, Book 2, BWV 874
TTITLE13=Vivace from Concerto For Two Violins in D Minor, BWV 1043
TTITLE14=Prelude And Fugue No.10 in E Minor from The Well-Tempered Clavier, Book 1, BWV 855
TTITLE15=Cantata, Choral 'Jesus Shall Remain My Gladness', BWV 147
TTITLE16=Gavotte from Partita No.3 For Solo Violin in E Major, BWV 1006
TTITLE17=Prelude And Fugue No.1 in C Major from The Well-Tempered Clavier, Book 1, BWV 846
TTITLE18=Fugue in G Major from Prelude And Fugue, BWV 541
TTITLE19=Adagio from Sonata No.3 For Violin And Harpsichord in E Major, BWV 1016
TTITLE20=Prelude And Fugue No.3 in C-sharp Major from The Well-Tempered Clavier, Book 1, BWV 848
TTITLE21=Choral 'Now Come, The Gentile's Savior' from Leipzig Chorales, BWV 859
TTITLE22=Fugue No.21 in B Flat Major from The Well-Tempered Clavier, Book 1, BWV 866
EXTD=YEAR: 1968
EXTT0=
EXTT1=
EXTT2=
EXTT3=
EXTT4=
EXTT5=
EXTT6=
EXTT7=
EXTT8=
EXTT9=
EXTT10=
EXTT11=
EXTT12=
EXTT13=
EXTT14=
EXTT15=
EXTT16=
EXTT17=
EXTT18=
EXTT19=
EXTT20=
EXTT21=
EXTT22=
PLAYORDER=
